<mxfile host="app.diagrams.net" modified="2023-04-17T02:16:39.572Z" agent="Mozilla/5.0 (Windows NT 10.0; Win64; x64) AppleWebKit/537.36 (KHTML, like Gecko) Chrome/112.0.0.0 Safari/537.36" etag="XWJW4xyQ0AaeAItOciRm" version="21.1.8" type="device">
  <diagram name="Page-1" id="e7e014a7-5840-1c2e-5031-d8a46d1fe8dd">
    <mxGraphModel dx="1050" dy="581" grid="1" gridSize="10" guides="1" tooltips="1" connect="1" arrows="1" fold="1" page="1" pageScale="1" pageWidth="1169" pageHeight="826" background="none" math="0" shadow="0">
      <root>
        <mxCell id="0" />
        <mxCell id="1" parent="0" />
        <mxCell id="2" value="GLPI" style="swimlane;whiteSpace=wrap" parent="1" vertex="1">
          <mxGeometry x="164.5" y="128" width="200" height="570" as="geometry" />
        </mxCell>
        <mxCell id="5" value="" style="ellipse;shape=startState;fillColor=#000000;strokeColor=#ff0000;" parent="2" vertex="1">
          <mxGeometry x="85" y="40" width="30" height="30" as="geometry" />
        </mxCell>
        <mxCell id="6" value="" style="edgeStyle=elbowEdgeStyle;elbow=horizontal;verticalAlign=bottom;endArrow=open;endSize=8;strokeColor=#FF0000;endFill=1;rounded=0" parent="2" source="5" target="7" edge="1">
          <mxGeometry x="100" y="40" as="geometry">
            <mxPoint x="115" y="110" as="targetPoint" />
          </mxGeometry>
        </mxCell>
        <mxCell id="7" value="Interação do&#xa;usuário com o&#xa;sistema" style="" parent="2" vertex="1">
          <mxGeometry x="45" y="110" width="110" height="50" as="geometry" />
        </mxCell>
        <mxCell id="8" value="Registra transação&#xa;no banco de dados&#xa;MySQL" style="" parent="2" vertex="1">
          <mxGeometry x="45" y="220" width="110" height="50" as="geometry" />
        </mxCell>
        <mxCell id="9" value="" style="endArrow=open;strokeColor=#FF0000;endFill=1;rounded=0" parent="2" source="7" target="8" edge="1">
          <mxGeometry relative="1" as="geometry" />
        </mxCell>
        <mxCell id="11" value="" style="endArrow=open;strokeColor=#FF0000;endFill=1;rounded=0;entryX=0.5;entryY=0;entryDx=0;entryDy=0;entryPerimeter=0;" parent="2" source="8" target="x9X8bxCbDvN7ob2jYkWM-41" edge="1">
          <mxGeometry relative="1" as="geometry">
            <mxPoint x="115" y="325" as="targetPoint" />
          </mxGeometry>
        </mxCell>
        <mxCell id="x9X8bxCbDvN7ob2jYkWM-41" value="MySQL" style="shape=cylinder3;whiteSpace=wrap;html=1;boundedLbl=1;backgroundOutline=1;size=15;" vertex="1" parent="2">
          <mxGeometry x="70" y="329" width="60" height="80" as="geometry" />
        </mxCell>
        <mxCell id="3" value="R" style="swimlane;whiteSpace=wrap" parent="1" vertex="1">
          <mxGeometry x="364.5" y="128" width="200" height="570" as="geometry" />
        </mxCell>
        <mxCell id="13" value="" style="ellipse;shape=startState;fillColor=#000000;strokeColor=#ff0000;" parent="3" vertex="1">
          <mxGeometry x="85" y="40" width="30" height="30" as="geometry" />
        </mxCell>
        <mxCell id="14" value="" style="edgeStyle=elbowEdgeStyle;elbow=horizontal;verticalAlign=bottom;endArrow=open;endSize=8;strokeColor=#FF0000;endFill=1;rounded=0" parent="3" source="13" target="15" edge="1">
          <mxGeometry x="40" y="20" as="geometry">
            <mxPoint x="55" y="90" as="targetPoint" />
          </mxGeometry>
        </mxCell>
        <mxCell id="15" value="Inicialização&#xa;do programa" style="" parent="3" vertex="1">
          <mxGeometry x="45" y="110" width="110" height="50" as="geometry" />
        </mxCell>
        <mxCell id="16" value="Coleta de dados&#xa;no banco&#xa;MySQL" style="" parent="3" vertex="1">
          <mxGeometry x="45" y="220" width="110" height="50" as="geometry" />
        </mxCell>
        <mxCell id="17" value="" style="endArrow=open;strokeColor=#FF0000;endFill=1;rounded=0" parent="3" source="15" target="16" edge="1">
          <mxGeometry relative="1" as="geometry" />
        </mxCell>
        <mxCell id="18" value="Gravação dos&#xa;dados no DW" style="" parent="3" vertex="1">
          <mxGeometry x="45" y="432" width="110" height="50" as="geometry" />
        </mxCell>
        <mxCell id="x9X8bxCbDvN7ob2jYkWM-48" style="edgeStyle=orthogonalEdgeStyle;rounded=0;orthogonalLoop=1;jettySize=auto;html=1;exitX=0.5;exitY=1;exitDx=0;exitDy=0;entryX=0.5;entryY=0;entryDx=0;entryDy=0;endArrow=open;strokeColor=#FF0000;endFill=1;" edge="1" parent="3" source="x9X8bxCbDvN7ob2jYkWM-43" target="18">
          <mxGeometry relative="1" as="geometry" />
        </mxCell>
        <mxCell id="x9X8bxCbDvN7ob2jYkWM-43" value="Processamento&#xa;dos dados&#xa;coletados" style="" vertex="1" parent="3">
          <mxGeometry x="45" y="332" width="110" height="50" as="geometry" />
        </mxCell>
        <mxCell id="x9X8bxCbDvN7ob2jYkWM-46" value="" style="endArrow=open;strokeColor=#FF0000;endFill=1;rounded=0;exitX=0.5;exitY=1;exitDx=0;exitDy=0;entryX=0.5;entryY=0;entryDx=0;entryDy=0;" edge="1" parent="3" source="16" target="x9X8bxCbDvN7ob2jYkWM-43">
          <mxGeometry relative="1" as="geometry">
            <mxPoint x="-40" y="409" as="sourcePoint" />
            <mxPoint x="-40" y="412" as="targetPoint" />
          </mxGeometry>
        </mxCell>
        <mxCell id="4" value="DW" style="swimlane;whiteSpace=wrap" parent="1" vertex="1">
          <mxGeometry x="564.5" y="128" width="200" height="570" as="geometry" />
        </mxCell>
        <mxCell id="x9X8bxCbDvN7ob2jYkWM-42" value="SQL Server" style="shape=cylinder3;whiteSpace=wrap;html=1;boundedLbl=1;backgroundOutline=1;size=15;" vertex="1" parent="4">
          <mxGeometry x="70" y="110" width="60" height="80" as="geometry" />
        </mxCell>
        <mxCell id="19" value="" style="endArrow=open;strokeColor=#FF0000;endFill=1;rounded=0;entryX=1;entryY=0.5;entryDx=0;entryDy=0;entryPerimeter=0;dashed=1;strokeWidth=1;" parent="1" source="16" target="x9X8bxCbDvN7ob2jYkWM-41" edge="1">
          <mxGeometry relative="1" as="geometry">
            <Array as="points">
              <mxPoint x="360" y="373" />
              <mxPoint x="360" y="440" />
              <mxPoint x="360" y="497" />
            </Array>
          </mxGeometry>
        </mxCell>
        <mxCell id="x9X8bxCbDvN7ob2jYkWM-47" style="edgeStyle=orthogonalEdgeStyle;rounded=0;orthogonalLoop=1;jettySize=auto;html=1;exitX=1;exitY=0;exitDx=0;exitDy=52.5;exitPerimeter=0;entryX=0;entryY=0.75;entryDx=0;entryDy=0;strokeColor=#FF0000;dashed=1;" edge="1" parent="1" source="x9X8bxCbDvN7ob2jYkWM-41" target="16">
          <mxGeometry relative="1" as="geometry">
            <Array as="points">
              <mxPoint x="370" y="510" />
              <mxPoint x="370" y="386" />
            </Array>
          </mxGeometry>
        </mxCell>
        <mxCell id="x9X8bxCbDvN7ob2jYkWM-49" style="edgeStyle=orthogonalEdgeStyle;rounded=0;orthogonalLoop=1;jettySize=auto;html=1;entryX=0;entryY=0.5;entryDx=0;entryDy=0;entryPerimeter=0;endArrow=open;strokeColor=#FF0000;endFill=1;" edge="1" parent="1" source="18" target="x9X8bxCbDvN7ob2jYkWM-42">
          <mxGeometry relative="1" as="geometry">
            <Array as="points">
              <mxPoint x="600" y="585" />
              <mxPoint x="600" y="278" />
            </Array>
          </mxGeometry>
        </mxCell>
      </root>
    </mxGraphModel>
  </diagram>
</mxfile>
